<svg viewBox="0 0 64 64"><path d="M43.693 23.153c-.272-.7-.597-1.2-1.122-1.725a4.648 4.648 0 00-1.725-1.122c-.529-.205-1.323-.45-2.785-.517-1.582-.072-2.056-.087-6.061-.087s-4.48.015-6.061.087c-1.462.067-2.257.311-2.785.517-.7.272-1.2.597-1.725 1.122a4.648 4.648 0 00-1.122 1.725c-.205.529-.45 1.323-.516 2.785-.072 1.582-.087 2.056-.087 6.061s.015 4.48.087 6.061c.067 1.462.311 2.257.516 2.785.272.7.597 1.2 1.122 1.725s1.025.85 1.725 1.122c.529.205 1.323.45 2.785.516 1.581.072 2.056.087 6.061.087s4.48-.015 6.061-.087c1.462-.067 2.257-.311 2.785-.516.7-.272 1.2-.597 1.725-1.122s.85-1.025 1.122-1.725c.205-.529.45-1.323.516-2.785.072-1.582.087-2.056.087-6.061s-.015-4.48-.087-6.061c-.066-1.462-.31-2.256-.516-2.785zM32 39.703a7.703 7.703 0 110-15.407 7.703 7.703 0 010 15.407zm8.007-13.91a1.8 1.8 0 110-3.6 1.8 1.8 0 010 3.6zM0 0v64h64V0H0zm46.91 38.184c-.073 1.597-.326 2.687-.697 3.641a7.351 7.351 0 01-1.73 2.657 7.343 7.343 0 01-2.657 1.73c-.954.371-2.044.624-3.641.697-1.6.074-2.111.091-6.185.091s-4.585-.017-6.184-.09c-1.597-.073-2.687-.326-3.641-.697a7.351 7.351 0 01-2.657-1.73 7.343 7.343 0 01-1.73-2.657c-.371-.954-.624-2.044-.697-3.641C17.017 36.585 17 36.074 17 32s.017-4.585.09-6.185c.073-1.597.326-2.687.697-3.641a7.351 7.351 0 011.73-2.657 7.343 7.343 0 012.657-1.73c.954-.371 2.045-.624 3.641-.697 1.6-.073 2.111-.09 6.185-.09s4.585.017 6.184.09c1.597.073 2.687.326 3.641.697a7.351 7.351 0 012.657 1.73 7.343 7.343 0 011.73 2.657c.371.954.624 2.044.697 3.641.074 1.6.091 2.111.091 6.185s-.017 4.585-.09 6.184zM32 27a5 5 0 10.001 10.001A5 5 0 0032 27z"/></svg>