<svg height="33" width="33" viewBox="0 0 512 512" xmlns="http://www.w3.org/2000/svg">
  <path d="M305 256a49 49 0 11-98 0 49 49 0 0198 0zm0 0"/>
  <path d="M371 169l-11-17-17-11c-5-2-13-4-28-5a1020 1020 0 00-146 5l-17 11-11 17c-2 5-4 13-5 28a1019 1019 0 005 146l11 17 17 11c5 2 13 4 28 5a1021 1021 0 00146-5c13-5 23-15 28-28 2-5 4-13 5-28a1021 1021 0 00-5-146zM256 331a75 75 0 110-150 75 75 0 010 150zm78-136a18 18 0 110-35 18 18 0 010 35zm0 0"/>
  <path d="M256 0a256 256 0 100 512 256 256 0 000-512zm146 317c-1 15-3 26-7 35-7 20-23 36-43 43-9 4-20 6-35 7a1042 1042 0 01-157-7c-10-3-19-9-26-17-8-7-14-16-17-26-4-9-6-20-7-35a1034 1034 0 017-157c3-10 9-19 17-26 7-8 16-14 26-17 9-4 20-6 35-7a1042 1042 0 01157 7c10 3 19 9 26 17 8 7 14 16 17 26 4 9 6 20 7 35l1 61-1 61zm0 0"/>
</svg>